<svg xmlns="http://www.w3.org/2000/svg" width="82.953" height="83.691" viewBox="0 0 82.953 83.691">
  <g id="Layer_2" data-name="Layer 2" transform="translate(0 0.01)">
    <g id="Layer_1" data-name="Layer 1" transform="translate(0 -0.01)">
      <path id="Path_3" data-name="Path 3" d="M86.935,81.555c-2.525-.071-5.188,2.649-5.018,5.127a5.2,5.2,0,0,0,5.165,5.249,5.189,5.189,0,1,0-.147-10.376Zm.22,6.884a1.779,1.779,0,0,1-1.813-1.745,1.985,1.985,0,0,1,1.742-1.688,1.765,1.765,0,0,1,1.687,1.781,1.585,1.585,0,0,1-1.612,1.653Z" transform="translate(-74.942 -74.617)" fill="#9042dd"/>
      <path id="Path_4" data-name="Path 4" d="M24.145,10.3A12,12,0,0,0,9.841.223C4.879,1.156,1.728,4.4.32,9.274A6.243,6.243,0,0,1,0,10.6v2.467c.066.016.077.067.085.126a20.845,20.845,0,0,0,1.579,5.041A85,85,0,0,0,8.191,30.113a38.288,38.288,0,0,0,2.76,4.022,1.6,1.6,0,0,0,2.467-.06c1.6-2.146,3.016-4.414,4.393-6.706A66.306,66.306,0,0,0,23.169,16.9,13.089,13.089,0,0,0,24.145,10.3ZM20.1,15.2a65.518,65.518,0,0,1-4.663,9.356c-1.021,1.776-2.117,3.51-3.257,5.273A12.134,12.134,0,0,1,11,28.109a109.436,109.436,0,0,1-6.025-11,12.946,12.946,0,0,1-1.394-4.294,8.224,8.224,0,0,1,4.4-8.264,8.656,8.656,0,0,1,12.707,6.172A8.481,8.481,0,0,1,20.1,15.2Z" transform="translate(0 0.01)" fill="#9042dd"/>
      <path id="Path_5" data-name="Path 5" d="M622.451,937.238c-.11-.17-.282-.08-.425-.085a42.681,42.681,0,0,1-6.075-.6,1.953,1.953,0,0,1-1.7-1.146,1.649,1.649,0,0,1,1.575-2.313c.691.031,1.379.142,2.066.231,1.516.2,3.042.279,4.563.417a5.908,5.908,0,0,1,.713.105,1.545,1.545,0,0,1,.9,2.535,2.83,2.83,0,0,1-.947.851Z" transform="translate(-562.191 -853.547)" fill="#9042dd"/>
      <path id="Path_6" data-name="Path 6" d="M703.961,490.611a8.7,8.7,0,1,0,6.247,2.742A8.642,8.642,0,0,0,703.961,490.611Zm5.123,8.973a5.259,5.259,0,0,1-3.024,4.445,5.546,5.546,0,0,1-7.188-3.672,5.174,5.174,0,1,1,10.211-.773Z" transform="translate(-636.568 -448.763)" fill="#9042dd"/>
      <path id="Path_7" data-name="Path 7" d="M644.017,420.5a15.671,15.671,0,0,0-19.746-11.227A15.839,15.839,0,0,0,613.22,424.05a14.251,14.251,0,0,0,.363,2.989,51.307,51.307,0,0,0,3.062,8.654,201.6,201.6,0,0,0,9.711,18.967,10.577,10.577,0,0,0,1.392,2.074,1.4,1.4,0,0,0,2.163.02,7.558,7.558,0,0,0,1.073-1.525q3.621-6.233,6.838-12.685a95.81,95.81,0,0,0,5.783-13.639A15.162,15.162,0,0,0,644.017,420.5Zm-3.721,7.434a78.866,78.866,0,0,1-4.455,10.706c-2.094,4.31-4.281,8.571-6.66,12.731-.327.572-.348.575-.668,0a167.364,167.364,0,0,1-10.245-20.912,25.028,25.028,0,0,1-1.522-5.329,9.344,9.344,0,0,1,.4-4.111,11.92,11.92,0,0,1,9.374-8.708,11.608,11.608,0,0,1,2.16-.184,12.159,12.159,0,0,1,12.034,9.565A12.39,12.39,0,0,1,640.3,427.929Z" transform="translate(-561.48 -373.647)" fill="#9042dd"/>
      <path id="Path_8" data-name="Path 8" d="M450.248,696.336a1.716,1.716,0,0,1-1.483,1.688,1.6,1.6,0,0,1-1.826-1.155,28.839,28.839,0,0,1-.646-3.67c-.182-1.332-.291-2.671-.379-4.012a.563.563,0,0,1,.2-.521c.2-.17.39-.37.585-.554a1.6,1.6,0,0,1,2.552.839c.226,1.155.308,2.324.467,3.487.163,1.191.336,2.381.5,3.572C450.235,696.143,450.242,696.285,450.248,696.336Z" transform="translate(-408.184 -629.102)" fill="#9042dd"/>
      <path id="Path_9" data-name="Path 9" d="M433.686,532.97a1.71,1.71,0,0,1-2.921,1.348,1.2,1.2,0,0,1-.386-.731c-.327-1.569-.418-3.171-.675-4.749-.125-.765-.269-1.531-.384-2.3a1.886,1.886,0,0,1,1.321-2.022,1.781,1.781,0,0,1,1.956,1.214,9.8,9.8,0,0,1,.465,2.065C433.332,529.5,433.556,531.209,433.686,532.97Z" transform="translate(-392.981 -479.747)" fill="#9042dd"/>
      <path id="Path_10" data-name="Path 10" d="M342.28,395.343a2.316,2.316,0,0,1,1.171.327,15.121,15.121,0,0,1,5.281,4.819,1.759,1.759,0,0,1,.112,2.1,1.593,1.593,0,0,1-2.452.38,5.014,5.014,0,0,1-.793-.883,11.834,11.834,0,0,0-3.427-3.131,4.433,4.433,0,0,1-1.066-.835,1.581,1.581,0,0,1-.158-1.828A1.375,1.375,0,0,1,342.28,395.343Z" transform="translate(-311.915 -361.633)" fill="#9042dd"/>
      <path id="Path_11" data-name="Path 11" d="M491.667,851.442a1.646,1.646,0,0,1-2.552,1.6,15.149,15.149,0,0,1-3.888-3.518,11.789,11.789,0,0,1-1.446-2.142,1.765,1.765,0,0,1,1.4-2.482,1.481,1.481,0,0,1,1.361.561,7.2,7.2,0,0,1,.606.817,13.1,13.1,0,0,0,3.232,3.46c.25.185.478.4.729.585A1.114,1.114,0,0,1,491.667,851.442Z" transform="translate(-442.706 -772.835)" fill="#9042dd"/>
      <path id="Path_12" data-name="Path 12" d="M207.869,367.67a22.572,22.572,0,0,1,4.059.425,1.514,1.514,0,0,1,1.294,1.331,1.81,1.81,0,0,1-.816,1.795,1.046,1.046,0,0,1-.688.17c-1.836-.1-3.678-.135-5.5-.4a1.461,1.461,0,0,1-1.308-1.6,1.555,1.555,0,0,1,1.322-1.656A12.489,12.489,0,0,1,207.869,367.67Z" transform="translate(-187.577 -336.324)" fill="#9042dd"/>
      <path id="Path_13" data-name="Path 13" d="M86.935,81.555c-2.525-.071-5.188,2.649-5.018,5.127a5.2,5.2,0,0,0,5.165,5.249,5.189,5.189,0,1,0-.147-10.376Zm.22,6.884a1.779,1.779,0,0,1-1.813-1.745,1.985,1.985,0,0,1,1.742-1.688,1.765,1.765,0,0,1,1.687,1.781,1.585,1.585,0,0,1-1.612,1.653Z" transform="translate(-74.942 -74.617)" fill="#9042dd"/>
      <path id="Path_14" data-name="Path 14" d="M703.961,490.611a8.7,8.7,0,1,0,6.247,2.742A8.642,8.642,0,0,0,703.961,490.611Zm5.123,8.973a5.259,5.259,0,0,1-3.024,4.445,5.546,5.546,0,0,1-7.188-3.672,5.174,5.174,0,1,1,10.211-.773Z" transform="translate(-636.568 -448.763)" fill="#9042dd"/>
      <path id="Path_15" data-name="Path 15" d="M86.935,81.555c-2.525-.071-5.188,2.649-5.018,5.127a5.2,5.2,0,0,0,5.165,5.249,5.189,5.189,0,1,0-.147-10.376Zm.22,6.884a1.779,1.779,0,0,1-1.813-1.745,1.985,1.985,0,0,1,1.742-1.688,1.765,1.765,0,0,1,1.687,1.781,1.585,1.585,0,0,1-1.612,1.653Z" transform="translate(-74.942 -74.617)" fill="#9042dd"/>
      <path id="Path_16" data-name="Path 16" d="M703.961,490.611a8.7,8.7,0,1,0,6.247,2.742A8.642,8.642,0,0,0,703.961,490.611Zm5.123,8.973a5.259,5.259,0,0,1-3.024,4.445,5.546,5.546,0,0,1-7.188-3.672,5.174,5.174,0,1,1,10.211-.773Z" transform="translate(-636.568 -448.763)" fill="#9042dd"/>
    </g>
  </g>
</svg>
