<svg xmlns="http://www.w3.org/2000/svg" width="30.763" height="41.017" viewBox="0 0 30.763 41.017">
  <g id="Layer_2" data-name="Layer 2" transform="translate(0.01 0)">
    <g id="Layer_1" data-name="Layer 1" transform="translate(-0.01 0)">
      <path id="Path_1" data-name="Path 1" d="M30.753,15.021a.129.129,0,0,1-.013-.03s0,0,0,0a.488.488,0,0,1,0-.143h0a.2.2,0,0,0,0-.027.062.062,0,0,0,0-.012v-.428a11.976,11.976,0,0,0-.077-1.367A14.158,14.158,0,0,0,29.377,8.8a15.341,15.341,0,0,0-2.511-3.765,15.511,15.511,0,0,0-2.8-2.46A15.131,15.131,0,0,0,19.607.485,10.038,10.038,0,0,0,17.568.077c-.4-.024-.8-.026-1.2-.077h-.24a.54.54,0,0,1-.32,0h-.761l-.014.006a.755.755,0,0,1-.246.012l-.02,0h0A.8.8,0,0,1,14.491,0h-.08a4.811,4.811,0,0,1-.593.04A10.091,10.091,0,0,0,12.305.2,15.575,15.575,0,0,0,.451,11.255,9.7,9.7,0,0,0,.065,13.3c-.021.36-.018.721-.074,1.079v.08c.04.076.012.158.019.238a.1.1,0,0,0,0,.011V14.9c-.01.094.022.19-.02.28v.481a1.034,1.034,0,0,1,0,.441v.441a.089.089,0,0,1,.022.06h0c0,.024,0,.05,0,.074.03.5.023.995.094,1.486a20.561,20.561,0,0,0,.844,3.517,29.793,29.793,0,0,0,1.887,4.432q.878,1.677,1.9,3.264a50.983,50.983,0,0,0,4.088,5.432c.847.987,1.729,1.941,2.623,2.884.641.678,1.322,1.319,2,1.959.3.28.59.561.9.822a1.856,1.856,0,0,0,.819.545h.36a1.126,1.126,0,0,0,.481-.2c.83-.7,1.619-1.45,2.4-2.2.721-.693,1.4-1.425,2.088-2.155q.807-.862,1.574-1.758c1.1-1.291,2.145-2.62,3.113-4.013a40.346,40.346,0,0,0,2.724-4.476,28.617,28.617,0,0,0,2.133-5.28,15.611,15.611,0,0,0,.685-4.423v-.449a1.98,1.98,0,0,1,.02-.435ZM15.515,39.409c-.143.129-.21.056-.308-.033A59.922,59.922,0,0,1,8.2,31.8a39.881,39.881,0,0,1-4.908-7.953,23.575,23.575,0,0,1-1.806-5.788A14.117,14.117,0,0,1,27.472,8.166a14.8,14.8,0,0,1,2,7.984,19.5,19.5,0,0,1-1.418,6.337,33.977,33.977,0,0,1-3.965,7.3A56.8,56.8,0,0,1,15.515,39.409Z" transform="translate(0.01 0)" fill="#fff"/>
      <path id="Path_2" data-name="Path 2" d="M199.7,192a7.69,7.69,0,1,0,7.682,7.7A7.7,7.7,0,0,0,199.7,192Zm-.009,14.1a6.409,6.409,0,1,1,6.409-6.409A6.421,6.421,0,0,1,199.691,206.1Z" transform="translate(-184.309 -184.309)" fill="#fff"/>
    </g>
  </g>
</svg>
