<svg xmlns="http://www.w3.org/2000/svg" width="103.338" height="67.95" viewBox="0 0 103.338 67.95">
  <g id="speedometer" transform="translate(0 -162.661)">
    <g id="Group_1" data-name="Group 1" transform="translate(0 162.661)">
      <path id="Path_17" data-name="Path 17" d="M769.835,596.906l-.024-.677q-.012-.34-.025-.682l-.007-.171,0-.086v-.021l0-.191v-.009l0-.036-.022-.284q-.044-.568-.089-1.139l-.023-.288-.034-.373-.07-.744-.073-.74-.037-.368-.045-.339c-.124-.9-.234-1.778-.392-2.625-.075-.424-.143-.841-.221-1.247l-.248-1.187c-.152-.772-.344-1.493-.505-2.16l-.121-.489-.129-.464-.242-.854c-.077-.268-.145-.519-.216-.749l-.2-.631-.226-.7a.536.536,0,0,0-.657-.351l-17.471,4.979a.535.535,0,0,0-.38.613l.065.348.083.434c.028.159.051.332.079.516l.089.586c.015.1.034.208.048.317l.038.334c.049.455.121.943.154,1.466.021.26.044.528.066.8s.026.555.04.839c.038.567.031,1.158.042,1.753l0,.222-.008.2q-.007.2-.013.393t-.011.394l0,.2-.012.283q-.024.571-.049,1.141l-.012.284,0,.035v.009c0,.043,0-.338,0-.174v.014l-.005.056-.01.112-.04.446-.039.442q-.026.219-.052.436c-.037.288-.06.574-.106.852l-.119.82-.135.78c-.04.253-.093.5-.141.734s-.089.465-.141.682l-.144.623-.066.286-.064.231-.036.133h21.368a.534.534,0,0,0,.536-.511V601.4q.027-.6.055-1.224.012-.626.024-1.277c.012-.433,0-.873,0-1.318Q769.838,597.244,769.835,596.906Z" transform="translate(-666.511 -533.963)" fill="#9042dd"/>
      <path id="Path_18" data-name="Path 18" d="M677.816,353.417a.536.536,0,0,0,.285-.727l-.205-.433-.243-.511-.369-.752-.423-.852c-.076-.156-.15-.285-.228-.431l-.238-.439c-.163-.3-.329-.611-.508-.93l-.572-.979-.3-.51-.321-.514-.665-1.056c-.476-.7-.95-1.435-1.479-2.15l-.391-.541-.2-.271-.2-.267-.825-1.067c-.28-.352-.57-.7-.854-1.043-.144-.172-.283-.346-.429-.514l-.44-.5-.436-.5c-.144-.165-.289-.327-.439-.484l-.877-.934c-.288-.306-.587-.593-.871-.88s-.564-.566-.848-.827l-.818-.766c-.263-.248-.532-.473-.782-.7l-.724-.633-.67-.552-.589-.483c-.182-.149-.357-.278-.51-.4l-.563-.432a.536.536,0,0,0-.739.084l-9.377,11.35a.536.536,0,0,0,.036.722l.271.268c.1.1.209.2.324.323l.371.392.422.444.451.508c.155.179.325.356.486.554l.5.606c.176.2.345.426.519.65s.357.448.53.687l.528.724c.091.12.177.246.262.374l.259.381.262.383c.087.128.167.262.252.393.166.265.337.525.5.792l.475.806.119.2.111.2.222.405c.3.532.561,1.08.829,1.6l.362.778.176.376.159.373.306.712.264.674.124.317c.038.1.086.21.111.294l.171.5.154.437.171.511.152.455a.536.536,0,0,0,.709.327Z" transform="translate(-580.049 -312.901)" fill="#9042dd"/>
      <path id="Path_19" data-name="Path 19" d="M452.664,247.229l.47.064.551.1.625.107c.191.032.389.078.6.121l5.918-12.1-.869-.136c-.2-.029-.388-.062-.579-.086l-.568-.069-1.087-.129-1.018-.087c-.326-.025-.638-.058-.935-.072l-.845-.042-.742-.035-.63-.01-.677-.008a.536.536,0,0,0-.542.511l-.54,11.267a.536.536,0,0,0,.462.557Z" transform="translate(-402.648 -226.987)" fill="#9042dd"/>
      <path id="Path_20" data-name="Path 20" d="M597.019,281.289l.451.329.4.285c.053.037.141.1.213.156l.211.158.384.287a.536.536,0,0,0,.768-.136L607.17,270.6a.536.536,0,0,0-.181-.759l-.416-.239-.229-.131-.273-.155-.712-.392-.81-.441-.855-.428c-.3-.146-.6-.308-.932-.456l-1.009-.462c-.344-.162-.707-.31-1.075-.464s-.742-.317-1.131-.463l-.3-.113-3.333,14.467c.184.116.358.238.529.349Z" transform="translate(-531.097 -254.843)" fill="#9042dd"/>
      <path id="Path_21" data-name="Path 21" d="M204.068,249.811c.149-.02.3-.044.442-.059l.433-.044.829-.086.777-.052.365-.025c.119-.008.237-.018.339-.018l.6-.016.522-.017.547,0,.479,0a.536.536,0,0,0,.531-.572l-.7-10.613a.536.536,0,0,0-.6-.5l-.476.06-.554.07-.77.114-.874.133c-.158.022-.3.052-.455.08l-.465.089-.987.191-1.049.239-.546.126c-.184.043-.369.1-.556.144l-1.143.3-1.17.353c-.2.061-.4.119-.594.184l-.595.2-.6.205c-.2.068-.4.137-.6.215l-1.193.455c-.4.155-.786.327-1.177.49-.195.083-.39.163-.582.248l-.571.264-.566.262c-.188.087-.375.172-.556.267l-1.079.545c-.354.178-.692.374-1.027.554s-.662.359-.972.548l-.907.538c-.294.171-.567.357-.834.524l-.761.488-.672.461-.589.406c-.182.125-.343.25-.491.357l-.511.377a.536.536,0,0,0-.124.733l4.407,6.479a.535.535,0,0,0,.706.166l.4-.223c.132-.073.274-.159.434-.242l.52-.271.589-.308.664-.318c.233-.108.468-.232.723-.341l.782-.343c.266-.122.547-.229.832-.344s.573-.236.873-.343l.911-.328c.153-.058.31-.107.467-.157l.474-.152.476-.154c.16-.049.323-.092.484-.139.324-.09.646-.189.972-.272l.978-.242c.161-.043.325-.077.488-.11l.487-.1.482-.1c.16-.032.321-.057.48-.085l.941-.163Z" transform="translate(-164.426 -229.628)" fill="#9042dd"/>
      <path id="Path_22" data-name="Path 22" d="M30.419,365.479l-.348.492-.35.5c-.116.166-.225.338-.339.508-.223.341-.452.68-.671,1.025l-.64,1.043-.159.26-.151.264-.3.525c-.407.691-.76,1.4-1.119,2.068l-.493,1.008-.237.488-.217.483-.415.925-.362.875c-.114.281-.229.547-.327.806l-.275.734-.241.645-.189.553-.189.562a.536.536,0,0,0,.317.671l4.1,1.573a.536.536,0,0,0,.676-.269l.213-.446.225-.469.282-.544.32-.618c.114-.217.244-.439.374-.674l.41-.729.463-.766.24-.4.259-.4.535-.826c.386-.546.763-1.121,1.189-1.676l.313-.422.157-.212.165-.207.66-.83c.224-.274.457-.54.683-.809.115-.133.225-.27.342-.4l.351-.387.348-.384c.114-.128.23-.254.349-.375l.7-.722c.229-.237.467-.457.692-.679s.446-.438.672-.637l.648-.59c.208-.192.421-.363.619-.534l.571-.486.505-.4.442-.352c.063-.052.148-.114.219-.168l.21-.159.383-.289a.536.536,0,0,0,.084-.776l-4.67-5.471a.536.536,0,0,0-.779-.039l-.345.333-.19.183c-.068.066-.132.125-.216.211l-.518.523-.587.6-.6.655c-.208.23-.432.461-.649.715l-.675.782c-.234.265-.461.55-.695.839s-.476.58-.709.888l-.707.936C30.65,365.153,30.534,365.315,30.419,365.479Z" transform="translate(-20.828 -336.919)" fill="#9042dd"/>
      <path id="Path_23" data-name="Path 23" d="M1.1,598.057l-.1.47-.11.541c-.039.2-.078.439-.121.682l-.134.781c-.023.137-.049.279-.071.422l-.059.435c-.077.593-.177,1.231-.236,1.913l-.1,1.045c-.029.357-.049.723-.074,1.094-.059.741-.07,1.509-.094,2.287L0,608.019v.293l0,.589q0,.295,0,.59l0,.3.011.3q.024.59.048,1.179l.012.293,0,.1.005.071.01.141.042.563q.021.281.041.559t.056.578l.056.57.028.281.035.275L.5,615.762l.158,1.024c.048.333.11.654.166.965l.014.074a.536.536,0,0,0,.527.438H2.806a.536.536,0,0,0,.536-.568q-.007-.123-.015-.249c-.018-.3-.04-.609-.047-.928s-.021-.646-.032-.98,0-.676-.006-1.023l0-.261q0-.129.006-.259.006-.26.012-.523t.012-.529q.013-.279.026-.56t.026-.564l.007-.142,0-.071V611.6c0-.022,0,.021,0,.013v-.017l0-.034.022-.274.088-1.1.022-.275.032-.274.063-.547.063-.544.031-.271L3.7,608c.11-.715.2-1.418.341-2.091.064-.337.122-.669.188-.992l.211-.943c.127-.614.291-1.184.424-1.713l.1-.387c.035-.124.072-.242.106-.359l.2-.659c.063-.209.115-.4.176-.582l.174-.524.151-.455a.536.536,0,0,0-.371-.686l-3.624-.966A.536.536,0,0,0,1.1,598.057Z" transform="translate(0 -550.314)" fill="#9042dd"/>
      <path id="Path_24" data-name="Path 24" d="M348.974,229.19a8.337,8.337,0,0,0,11.158-3.83,8.749,8.749,0,0,0,.635-1.791l8.439-36.627,3.214-13.949,1.991-8.641a1.367,1.367,0,0,0-1.371-1.691,1.313,1.313,0,0,0-1.206.778l-4.051,8.287L361.8,183.95l-16.662,34.081A8.342,8.342,0,0,0,348.974,229.19Zm3.967-11.8a4.089,4.089,0,1,1-4.089,4.089A4.089,4.089,0,0,1,352.941,217.395Z" transform="translate(-306.842 -162.661)" fill="#9042dd"/>
    </g>
  </g>
</svg>
